<?xml version="1.0" encoding="UTF-8" standalone="no"?>
<!-- Created with Inkscape (http://www.inkscape.org/) -->

<svg
   xmlns:dc="http://purl.org/dc/elements/1.1/"
   xmlns:cc="http://creativecommons.org/ns#"
   xmlns:rdf="http://www.w3.org/1999/02/22-rdf-syntax-ns#"
   xmlns:svg="http://www.w3.org/2000/svg"
   xmlns="http://www.w3.org/2000/svg"
   xmlns:sodipodi="http://sodipodi.sourceforge.net/DTD/sodipodi-0.dtd"
   xmlns:inkscape="http://www.inkscape.org/namespaces/inkscape"
   width="500"
   height="500"
   id="svg2"
   version="1.1"
   inkscape:version="0.48.0 r9654"
   sodipodi:docname="sprite.svg"
   inkscape:export-filename="/Users/tristen/Desktop/radioplay/images/sprite.png"
   inkscape:export-xdpi="90"
   inkscape:export-ydpi="90">
  <defs
     id="defs4">
	

		
			
		
	<clipPath
   clipPathUnits="userSpaceOnUse"
   id="clipPath4135">
  <rect
     style="color:#000000;fill:#e6e6e6;fill-opacity:1;fill-rule:nonzero;stroke:#d1d1d1;stroke-width:0.99999994;stroke-linecap:butt;stroke-linejoin:miter;stroke-miterlimit:4;stroke-opacity:1;stroke-dasharray:none;stroke-dashoffset:0;marker:none;visibility:visible;display:inline;overflow:visible;enable-background:accumulate"
     id="rect4137"
     width="581.61224"
     height="173.66779"
     x="53.571995"
     y="229.96455" />
</clipPath>
</defs>
  <sodipodi:namedview
     id="base"
     pagecolor="#ffffff"
     bordercolor="#666666"
     borderopacity="1.0"
     inkscape:pageopacity="0.0"
     inkscape:pageshadow="2"
     inkscape:zoom="11.2"
     inkscape:cx="480.25606"
     inkscape:cy="17.802772"
     inkscape:document-units="px"
     inkscape:current-layer="layer1"
     showgrid="true"
     inkscape:window-width="1076"
     inkscape:window-height="707"
     inkscape:window-x="146"
     inkscape:window-y="0"
     inkscape:window-maximized="0">
    <inkscape:grid
       type="xygrid"
       id="grid4080"
       empspacing="5"
       visible="true"
       enabled="true"
       snapvisiblegridlinesonly="true" />
  </sodipodi:namedview>
  <metadata
     id="metadata7">
    <rdf:RDF>
      <cc:Work
         rdf:about="">
        <dc:format>image/svg+xml</dc:format>
        <dc:type
           rdf:resource="http://purl.org/dc/dcmitype/StillImage" />
        <dc:title></dc:title>
      </cc:Work>
    </rdf:RDF>
  </metadata>
  <g
     inkscape:groupmode="layer"
     id="layer3"
     inkscape:label="underlay"
     sodipodi:insensitive="true"
     style="display:none">
    <rect
       style="color:#000000;fill:#4d4d4d;fill-opacity:1;fill-rule:nonzero;stroke:none;stroke-width:1;marker:none;visibility:visible;display:inline;overflow:visible;enable-background:accumulate"
       id="rect4140"
       width="500"
       height="500"
       x="0"
       y="0" />
  </g>
  <g
     inkscape:label="sprite"
     inkscape:groupmode="layer"
     id="layer1"
     transform="translate(0,-552.36218)">
    <g
       style="opacity:0.05;fill:#ffffff"
       id="g3069"
       transform="matrix(0.85795996,0,0,0.85795996,-45.96263,356.0618)"
       clip-path="url(#clipPath4135)">
			<path
   style="fill:#ffffff"
   inkscape:connector-curvature="0"
   d="m 503.473,348.258 c -1.379,0.125 -0.705,0.113 -1.736,-0.559 -1.751,-1.141 -1.924,-0.217 -3.673,-0.055 -2.016,0.186 -1.669,-0.939 -3.03,1.117 -1.09,1.645 -1.879,1.607 -3.707,1.83 -1.032,0.127 -1.629,1.082 -2.563,1.371 -0.982,0.305 -1.69,-0.182 -2.686,-0.021 0.067,-0.01 -3.666,1.08 -3.06,0.141 1.966,-3.047 -1.643,-1.621 -3.176,-0.904 -1.288,0.604 -2.103,0.373 -3.357,-0.26 -1.757,-0.889 -4.585,-3.256 -4.744,-5.408 -4.068,1.221 -2.078,-2.184 -2.354,-4.328 -0.598,-4.574 -4.19,-1.379 -4.625,1.402 -1.914,0.588 -1.93,-1.895 -3.681,-2.266 -1.521,-0.322 -2.606,0.742 -3.937,1.266 0.916,-1.789 2.163,-2.461 4.024,-3.002 3.589,-1.043 5.805,-2.326 6.862,-6.184 2.374,-8.656 -7.603,-6.959 -11.991,-3.895 -6.017,4.201 -13.76,11.334 -15.986,18.514 -1.991,6.422 -3.245,14.836 -7.809,19.953 -3.586,4.021 -8.396,6.867 -11.377,11.365 0.438,-1.135 0.824,-2.324 1.406,-3.285 1.29,-2.133 2.738,-3.91 4.354,-5.764 2.524,-2.898 4.882,-5.246 6.28,-8.871 1.451,-3.764 2.185,-7.82 2.718,-11.781 0.508,-3.771 1.975,-7.051 3.721,-10.389 1.291,-2.467 3.674,-3.539 4.933,-5.801 1.166,-2.094 -0.354,-4.824 0.309,-7.098 1.106,-3.797 5.31,-6.268 8.196,-8.6 3.839,-3.1 7.411,-3.172 11.909,-4.727 5.65,-1.951 13.125,-4.521 17.403,-8.867 2.492,-2.531 2.571,-5.754 3.206,-9.068 0.862,-4.504 2.566,-9.174 5.384,-12.859 3.44,-4.502 6.254,-6.906 6.158,-12.82 -2.453,-3.004 -7.463,-8.676 -11.258,-9.691 -1.004,-0.268 -3.167,-0.902 -4.128,-0.207 -1.042,0.756 -0.366,2.666 -0.88,3.062 -0.119,0.092 -0.93,0.467 -1.072,0.555 -0.737,-1.766 -1.932,-4.223 -4.215,-4.119 -3.001,0.135 -2.443,3.033 -3.215,5.117 -0.624,1.684 -1.468,4.074 -2.271,5.639 -0.955,1.863 -2.809,2.525 -3.926,4.246 -0.065,-0.086 -0.361,-0.217 -0.464,-0.189 0.079,-2.58 1.026,-3.947 2.241,-6.064 0.934,-1.629 1.251,-3.096 1.931,-4.814 0.714,-1.807 2.658,-3.143 3.244,-4.828 1.521,-4.375 -4.95,-4.836 -6.215,-0.717 -1.577,-1.43 -5.028,-1.607 -6.996,-1.152 -0.897,0.207 -5.406,3.09 -5.454,0.822 -0.021,-1.002 -0.282,-1.916 -0.332,-2.912 -5.481,-0.199 -9.722,-0.391 -13.237,-5.289 0.524,-0.709 0.406,-1.471 0.738,-2.188 -1.22,-1.977 -4.403,-2.662 -6.118,-3.818 5.749,-2.602 -8.933,-6.463 -8.363,-4.588 -0.651,-2.148 -3.575,-5.578 -6.426,-5.436 -0.559,0.029 -3.844,-4.592 -4.487,-5.162 -1.791,-1.59 -4.809,-2.445 -6.269,-4.289 -0.597,3.418 -0.525,7 -0.069,10.432 0.579,4.357 1.086,12.418 -3.351,15.404 -4.938,3.322 -9.194,-4.086 -13.343,3.105 -0.788,-2.922 1.143,-5.287 -0.08,-8.168 -3.722,-2.377 -3.614,-6.107 -5.16,-9.793 -1.531,-3.65 -3.403,-4.334 -7.099,-3.434 -4.72,1.152 -5.225,0.559 -8.354,-2.875 -2.061,-2.26 -5.797,-4.504 -8.961,-4.678 -3.271,-0.18 -4.496,2.264 -6.177,4.693 -2.885,0.596 -6.62,-0.232 -9.476,-0.828 -1.838,-0.385 -4.692,1.594 -4.968,3.414 -0.439,2.912 2.27,3.707 3.44,5.871 1.348,2.492 -0.191,4.936 0.505,7.182 0.677,2.18 3.255,3.109 4.375,5.018 2.761,4.707 -0.737,8.873 -1.608,13.34 -1.039,5.326 4.87,7.02 8.428,9.713 8.456,6.4 11.824,15.309 6.457,25.301 -1.014,1.887 -2.106,4.234 -3.627,5.758 -1.624,1.629 -4.263,1.674 -5.766,3.199 -3.217,3.264 3.052,6.002 4.215,9.162 1.61,4.379 3.48,7.334 5.984,11.203 2.483,3.84 0.627,8.326 1.54,12.68 -1.403,-0.18 -2.698,-1.217 -3.456,-2.256 -0.908,2.592 -0.824,8.256 -5.631,5.094 -1.215,-0.801 -1.659,-2.73 -2.807,-3.734 -1.145,-1 -2.744,-1.539 -4.019,-2.365 -0.828,-2.488 -2.889,-3.262 -4.729,-4.832 -3.145,-2.682 -3.673,-6.59 -5.021,-10.305 -1.415,-3.9 -1.012,-7.82 -1.925,-11.602 -0.828,-3.432 -3.501,-2.721 -6.759,-2.615 -2.817,0.092 -5.618,0.289 -8.399,0.805 -1.546,0.287 -2.626,1.014 -4.115,0.186 -1.211,-0.676 -1.24,-2.414 -2.426,-3.053 -1.415,-0.762 -2.55,0.27 -3.957,-0.141 -0.946,-0.277 -1.36,-1.504 -2.493,-1.887 -1.363,-0.459 -3.265,0.449 -4.519,-0.217 -1.444,-0.768 -1.838,-2.568 -2.905,-3.934 -1.695,-2.17 -3.522,-3.967 -6.381,-4.4 -1.092,-0.164 -2.502,0.512 -3.531,0.174 -1.105,-0.363 -1.181,-1.361 -2.049,-1.76 -2.084,-0.957 -5.444,-0.971 -7.636,-0.383 -0.485,0.129 -5.596,2.057 -5.662,0.719 -0.201,-4.037 -0.382,-8.879 -1.542,-12.762 -1.634,-5.461 -4.668,-2.018 -8.572,-3.191 -4.029,-1.213 -2.889,-7.621 -2.381,-10.836 1.48,-9.396 5.471,-20.367 11.161,-28.064 1.925,-2.605 9.474,-3.613 5.478,-8.055 -2.41,-2.678 -9.288,-3.332 -12.643,-3.59 -0.275,-4.846 9.039,-0.508 11.193,0.344 2.708,1.072 3.605,1.959 5.791,-1.24 1.622,-2.373 2.295,-3.41 5.796,-2.416 1.86,-2.227 3.527,-5.711 4.722,-8.342 0.652,-1.438 1.02,-3.572 -0.465,-4.66 -1.64,-1.203 -2.918,0.4 -4.536,0.375 -3.974,-0.061 -7.093,-4.344 -10.498,-5.912 2.091,0.963 5.948,-0.613 8.458,0.725 2.592,1.383 3.947,4.191 7.451,2.295 2.662,-1.441 3.396,-5.273 4.52,-7.838 -0.432,-0.385 -3.93,-2.258 -4.418,-1.92 1.379,-0.955 5.802,-3.488 6.241,-0.418 4.397,0.383 5.768,-2.156 8.606,-4.877 2.599,-2.49 6.389,-4.342 5.176,-8.627 -0.18,-0.635 -7.716,-10.347 -7.513,-10.367 6.303,-0.633 2.826,-6.592 -0.064,-9.135 -3.304,1.157 -5.684,-3.218 -9,-0.4 -1.204,-0.875 -2.198,-0.578 -3.425,-0.976 -0.605,1.65 -0.442,3.251 0.514,4.839 0.614,0.085 1.222,0.061 1.838,0.163 1.229,3.415 0.236,11.006 -0.625,14.554 -3.789,15.614 -13.332,-0.628 -8.75,-6.128 -2.484,-1.858 -4.021,-4.42 -6.588,-6.324 -0.169,3.352 2.025,7.996 0.036,10.373 -0.636,-0.189 -1.841,-0.787 -2.411,-1.137 0.184,-4.695 -1.424,-11.241 -7.5,-9.478 -0.945,-4.166 0.582,-8.173 -0.147,-12.104 -0.382,-2.061 -2.63,-7.868 -4.026,-10.245 -2.44,0.091 -4.325,-0.906 -6.229,-1.235 0.006,2.66 -2.449,6.808 -3.045,9.291 -2.109,8.783 4.692,9.534 7.521,17.596 1.836,5.229 1.527,3.515 -2.084,8.469 -2.555,3.503 -2.44,5.188 -3.662,9.723 -0.254,0.943 -2.513,-1.703 -2.578,-1.821 -1.478,-2.659 -1.038,-5.896 0.978,-7.968 -1.239,1.272 -3.896,-1.088 -4.585,-1.408 -2.836,-1.32 -5.344,0.12 -4.68,3.666 2.436,-0.337 2.874,0.63 4.512,1.59 -2.711,3.75 -4.425,0.442 -7.299,0.174 -3.076,-0.287 -6.591,1.014 -9.565,0.311 -5.444,-1.287 -17.691,-16.181 -22.425,-5.564 -0.342,0.766 -0.348,10.018 -0.379,10.017 -1.571,-0.017 -2.027,-0.356 -3.18,-1.425 4.068,-12.125 -18.748,-11.424 -24.264,-17.002 0.703,-1.564 0.972,-1.607 2.467,-1.911 3.628,2.326 3.904,-3.268 2.33,-5.646 -1.669,-2.519 -5.451,-2.788 -8.16,-3.028 -3.258,-6.526 -11.086,-10.276 -15.174,-16.326 -3.104,-0.282 -4.113,2.013 -6.838,1.286 2.236,-5.314 3.323,-9.988 -2.502,-3.924 -0.158,-4.125 0.873,-9.242 -1.685,-12.387 2.081,2.56 -14.087,-0.919 -14.306,-0.975 -2.939,1.186 -18.676,2.578 -10.033,-3.585 0.174,0.075 -0.537,-0.838 -0.54,-0.789 -2.487,0.955 -4.903,1.331 -7.46,0.89 0.584,0.964 0.477,1.991 0.848,2.847 -7.809,-1.418 -7.488,-10.529 -10.397,-16.499 -8.38,8.517 -59.09,67.827 -64.048,71.325 1.618,0.449 3.657,1.124 5.461,1.811 0.507,0.192 0.409,2.043 0.438,2.431 0.264,3.419 0.151,6.894 0.088,10.319 -0.029,1.562 -0.008,3.156 0.012,4.715 0.013,1.053 0.18,1.438 0.51,1.564 0.453,0.176 1.213,-0.133 2.309,0.137 0.869,0.217 1.995,2.174 2.502,0.268 0.851,-0.043 1.003,-0.674 1.471,-1.23 0.804,-0.953 0.144,-0.674 1.302,-0.775 1.088,-0.096 2.527,0.518 3.706,-0.277 0.949,0.625 1.586,3.449 1.231,4.494 -0.117,0.037 -0.219,-0.004 -0.335,0.037 -0.709,1.318 -0.414,3.881 -0.494,5.379 -0.042,0.775 -0.255,1.816 0.014,2.566 0.734,2.053 1.575,3.189 1.211,5.646 -0.107,0.721 -0.18,1.582 -0.556,2.219 -0.401,0.682 -1.031,0.725 -1.19,1.572 -0.219,1.172 0.797,3.221 0.904,4.48 0.15,1.768 0.189,3.217 -0.735,4.77 -0.158,0.266 -0.682,0.402 -0.768,0.693 -0.1,0.336 0.142,0.705 0.072,0.959 -0.212,0.775 0.329,1.379 -1.083,1.467 -0.624,1.279 0.384,3.691 1.164,4.859 1.346,2.016 2.565,4.119 3.672,6.254 1.647,3.174 -1.035,5.869 -2.511,8.566 -2.008,3.666 -6.011,5.748 -7.084,9.834 -0.446,1.695 -2.745,7.488 -0.373,8.736 1.152,0.604 2.386,-1.039 3.471,-1.232 3.956,-0.709 0.494,2.459 -0.273,3.498 -0.726,0.984 -0.718,1.822 -0.791,2.99 -0.071,1.156 -0.545,2.252 -0.584,3.391 -0.042,1.234 0.558,1.902 -0.042,3.033 -0.639,1.207 -1.496,1.055 -0.604,2.525 1.191,1.967 3.776,1.988 5.793,2.143 -0.292,2.26 -2.9,2.609 -4.615,3.318 -2.198,0.908 -3.049,2.568 -4.009,4.688 -0.256,0.564 -0.591,1.844 -0.734,2.412 -0.271,1.084 0.411,3.275 1.272,4.316 2.256,0.014 4.952,1.703 4.875,4.172 -0.039,1.248 -0.682,1.396 0.365,2.441 0.752,0.752 1.967,1.172 2.803,1.877 1.362,1.148 3.825,2.945 3.209,4.889 -0.356,1.125 -1.146,1.533 -1.11,2.881 0.033,1.295 0.524,1.791 1.327,2.666 1.709,1.863 2.548,4.93 3.593,7.188 1.08,2.332 0.253,3.018 2.411,4.506 2.78,1.916 75.756,38.027 170.946,40.398 0.775,0.02 11.841,0.949 11.76,-0.09 -0.111,-1.434 0.128,-2.965 0.694,-4.221 2.854,0.625 1.332,3.229 2.187,5.273 1.222,2.924 2.427,2.188 4.825,2.637 2.5,0.467 5.349,-0.715 7.733,0.18 2.988,1.119 2.84,2.619 6.358,2.736 2.416,0.082 1.05,0.672 2.963,1.758 2.198,1.246 2.55,-1 4.277,-1.357 1.496,-0.309 2.601,1.412 4.166,1.629 2.391,0.332 7.424,-0.023 9.08,-1.893 1.658,-1.869 3.145,-4.469 4.35,-6.648 1.919,-3.469 3.702,-0.721 6.939,-0.76 3.027,-0.037 6.812,-0.445 7.294,3.551 0.815,1.422 5.315,6.152 6.878,3.531 1.08,0.146 2.356,-0.17 3.224,0.67 0.756,0.734 0.309,1.762 1.249,2.482 1.732,-0.51 2.464,2.855 0.316,3.484 0.777,1.146 0.396,2.584 0.942,3.83 0.613,1.398 1.446,1.682 2.636,2.316 1.86,0.994 2.945,2.689 5.168,2.998 2.286,0.318 3.483,-1.26 5.59,-1.689 1.344,-0.271 2.747,-0.32 4.11,-0.242 5.42,0.305 13.436,-0.51 17.876,3.154 1.936,1.598 3.555,5.195 1.67,7.35 -2.117,2.42 -5.637,0.758 -7.838,-0.58 -0.681,2.137 1.087,3.256 1.126,5.143 0.048,2.318 -2.579,3.852 -2.144,6.363 0.245,1.414 0.963,2.193 1.03,3.795 0.063,1.502 0.251,2.975 -0.383,4.105 -0.32,0.572 -1.082,1.033 -1.46,1.76 -1.241,2.385 -1.938,5.01 -3.37,7.35 -1.688,2.758 -2.021,6.848 2.542,4.496 3.45,-1.777 4.03,-6.158 7.739,-7.705 3.038,-1.266 5.743,-2.666 8.706,-4.064 2.011,-0.949 8.031,-1.396 8.699,-4.01 0.887,-3.471 -5.611,-1.598 -7.1,-2.061 0.391,-2.223 1.509,-4.027 3.029,-5.668 2.934,-3.164 6.942,-4.498 11.12,-4.939 3.395,-0.357 2.104,-0.982 3.299,-3.432 0.946,-1.938 3.315,-1.609 4.648,-0.129 0.93,-2.699 2.106,-5.215 3.593,-7.652 2.835,-4.65 5.617,-6.039 10.627,-7.846 5.977,-2.154 12.439,-3.338 18.131,-6.172 0.352,-1.168 -0.655,-2.941 -0.076,-3.9 0.582,-0.963 2.193,-0.678 3.004,-1.566 3.108,-3.402 1.128,-10.01 0.795,-14.064 -0.171,-2.086 0.457,-4.359 0.858,-6.395 0.17,-0.861 0.348,-1.775 1.132,-2.33 0.325,-0.23 2.476,-0.338 2.163,0.061 0.844,-1.076 2.287,-2.65 3.629,-3.096 5.211,-1.725 7.39,6.865 7.973,10.102 0.27,1.498 0.699,3.256 1.824,4.396 0.904,0.914 2.165,0.615 3.096,1.33 0.769,0.59 0.818,1.625 1.475,2.311 1.23,1.285 5.893,-0.717 7.31,-1.475 1.194,-0.639 1.057,-0.455 1.753,-1.729 0.62,-1.135 0.978,-0.92 1.952,-1.555 1.965,-1.281 2.774,-4.523 4.312,-6.311 0.71,-0.824 1.294,-1.756 1.684,-2.736 0.246,-0.623 0.374,-2.76 1.582,-1.984 1.438,0.926 -0.988,4.781 -1.164,5.865 0.985,0.301 1.383,-1.023 2.027,-1.58 0.62,-0.537 1.481,-0.783 2.235,-1.125 1.625,-0.738 3.022,-1.348 4.715,-1.785 0.274,0.184 0.423,0.414 0.481,0.729 -0.512,0.855 -1.997,1.184 -2.768,1.896 -1.001,0.926 -1.043,1.873 -1.714,2.963 -0.548,-0.705 -0.709,-2.135 -1.735,-1.846 -0.832,0.234 -2.48,4.107 -3.012,4.947 -0.949,1.496 -1.415,3.617 -2.856,4.719 0.082,1.303 -0.945,1.752 -1.237,2.801 -0.272,0.977 0.417,1.127 0.444,1.951 0.058,1.207 0.064,2.492 0.574,3.611 1.099,2.416 2.33,1.799 4.33,2.578 1.819,0.711 2.388,2.26 4.005,-0.088 -0.587,-1.496 0.588,-2.746 1.273,-3.893 0.903,-1.51 1.431,-3.32 1.714,-5.07 0.234,-1.455 -0.396,-3.947 0.134,-5.209 0.662,-1.58 1.851,-0.727 2.995,-1.004 1.781,-0.432 0.744,-1.822 1.426,-3.115 0.491,-0.936 1.813,-1.455 2.634,-2.07 1.345,-1.008 2.337,-2.604 3.464,-3.854 1.345,-1.49 1.89,-3.312 3.063,-4.811 0.547,-0.697 1.434,-1.141 2.001,-1.881 0.684,-0.891 0.812,-1.414 1.887,-1.99 -0.397,-1.205 -1.177,-0.535 -2.001,-0.461 z m -26.85,-4.02 c 0.002,-0.039 0.008,-0.062 0.011,-0.098 -0.005,-0.051 0,-0.104 -0.011,-0.152 v 0.25 z m 15.984,-3.103 c -1.521,-0.588 -3.076,1.85 -4.152,2.506 -0.701,0.428 -1.737,0.566 -2.494,0.939 -0.876,0.43 -1.751,1.076 -2.748,1.309 -0.464,0.107 -1.172,-0.01 -1.521,0.084 -0.385,0.105 -0.678,0.59 -1.162,0.748 -0.663,-0.781 -1.518,-0.553 -2.13,-1.127 -0.284,-0.266 -1.612,-3.316 -1.766,-1.453 0.069,0.867 -0.747,1.988 -0.353,2.707 0.297,0.541 1.569,0.783 2.096,1.084 0.349,0.201 0.615,0.695 1.047,0.771 0.572,0.104 0.971,-0.467 1.256,-0.432 0.845,0.105 1.065,0.666 2.331,0.566 0.705,-0.055 2.543,-0.053 3.137,-0.441 0.533,-0.348 0.127,-1.055 0.91,-1.258 0.714,-0.188 1.19,0.215 1.087,0.953 0.739,0.207 2.361,0.287 3.076,-0.014 1.58,-0.666 0.759,-1.07 0.375,-1.9 -0.454,-0.982 -0.574,-1.291 -0.199,-2.594 0.272,-0.946 1.01,-1.536 1.21,-2.448 z m 15.872,-5.99 c -1.022,-0.721 -1.723,0.451 -2.678,0.662 -0.441,0.098 -0.898,-0.225 -1.359,-0.133 -0.361,0.072 -0.941,0.695 -1.257,0.66 -1.5,-0.174 -0.814,-1.666 -0.799,-2.631 0.021,-1.375 -0.595,-2.27 -1.707,-3.217 -2.148,-1.83 -2.005,2.559 -1.93,3.531 0.061,0.789 0.157,1.594 0.188,2.389 0.06,1.504 -0.115,2.967 -1.202,4.207 0.379,1.953 1.64,5.785 4.212,5.156 1.902,-0.465 4.82,-2.891 5.626,-4.625 0.633,-1.365 0.977,-2.748 1.812,-4.031 -0.652,-0.465 -1.144,-1.158 -0.906,-1.968 z m -35.17,-20.168 c -4.418,-0.287 -8.984,0.229 -12.586,3.068 0.084,0.086 0.201,0.418 0.195,0.525 4.232,0.609 8.403,1.41 12.682,0.943 1.4,-0.152 4.321,-0.207 5.451,-1.002 4.138,-2.917 -4.403,-3.447 -5.742,-3.534 z m 58.296,-20.463 c -0.021,-2.232 3.182,-5.584 1.718,-7.361 -1.913,0.889 -2.982,2.697 -5.163,3.625 -0.294,-1.143 -0.688,-1.234 -1.493,-1.957 0.402,-2.326 -0.369,-4.52 -2.814,-4.936 -2.703,-0.461 -3.519,1.725 -4.948,3.352 -1.364,1.553 -2.87,2.104 -4.614,2.914 -4.337,2.02 -1.706,-0.924 -4.361,-2.232 -2.209,-1.088 -2.378,2.145 -4.101,3.115 -1.521,0.857 -0.779,1.104 -1.979,-0.666 -1.38,-2.033 -1.436,-6.322 -1.689,-8.707 -0.178,-1.662 1.202,-9.492 -2.036,-8.047 l 0.25,-0.5 c -7.506,8.395 -1.325,23.625 0.263,32.977 0.753,4.434 -2.592,3.461 -3.218,6.992 1.587,-0.324 2.819,-1.738 4.667,-1.43 0.025,2.109 -1.691,6.924 -0.037,8.559 2.569,2.539 5.473,-1.719 6.826,-3.326 2.314,-2.752 4.91,-2.465 7.601,-4.406 2.457,-1.77 3.053,-3.172 5.975,-4.373 2.499,-1.027 4.221,-3.305 7.148,-3.191 -1.622,1.623 -3.15,9.57 0.392,7.1 2.232,-1.557 1.664,-10.107 2.165,-12.721 0.221,-1.156 1.35,-1.426 1.129,-2.688 -0.118,-0.662 -1.679,-1.861 -1.681,-2.093 z m 10.73,-1.112 c -2.3,-0.277 -1.791,2.994 -3.911,3.428 1.853,-0.379 -1.52,-5.461 -2.857,-5.805 -1.021,-0.264 0.006,7.135 0.02,7.299 -0.051,-0.617 -2.294,-0.051 -2.142,1.498 0.082,0.832 2.036,2.727 2.375,3.756 0.337,1.025 0.101,4.215 2.132,2.957 0.092,-0.057 2.64,-6.674 2.959,-1.215 5.391,2.018 1.781,-9.748 1.424,-11.918 z M 70.677,323.105 c -1.016,-2.814 -0.098,-5.938 -1.598,-8.607 -1.447,-2.574 -4.157,-3.947 -5.887,-6.184 -1.468,-1.898 -1.864,-5.527 -4.538,-6.344 -3.803,-1.158 -1.62,3.277 -0.636,4.818 -3.615,0.994 0.182,4.803 1.377,6.184 0.791,0.914 1.978,1.83 2.203,3.121 0.3,1.725 -0.961,1.963 -1.009,3.355 -0.097,2.822 2.474,3.842 3.92,5.678 1.869,2.371 0.727,4.953 2.261,7.496 1.244,2.062 4.241,5.418 6.347,6.635 1.799,1.039 1.306,-5.709 1.277,-6.307 -0.194,-4.081 -2.363,-6.095 -3.717,-9.845 z M 335.507,134.32 c 0.004,-0.028 0.014,-0.055 0.018,-0.083 -0.063,0.064 -0.053,0.082 -0.018,0.083 z m -20.848,-5.96 c -1.647,1.793 -0.216,4.223 -0.419,6.369 -1.552,-0.066 -2.475,-1.422 -3.017,-2.897 -2.31,0.981 -0.377,3.614 -2.609,4.915 -1.637,-3.25 0.941,-6.25 -1.159,-10.046 -1.036,-1.874 -1.924,-5.183 -4.118,-6.025 -3.264,-1.253 -4.268,2.746 -5.779,2.713 -4.598,-0.121 -4.141,6.373 -3.641,9.28 0.504,2.926 0.764,2.369 -0.253,5.703 2.001,2.078 4.405,5.152 3.569,8.033 -4.604,-2.582 -5.854,-7.455 -6.68,-11.988 -0.6,-3.29 -1.129,-2.775 -0.109,-6.202 0.688,-2.305 1.883,-4.674 2.109,-7.069 -5.163,1.442 -8.646,3.024 -10.365,8.345 -0.993,3.077 -2.746,16.038 -0.376,18.163 2.626,2.354 6.845,-0.535 8.702,3.744 -2.486,0.685 -4.088,-0.762 -6.508,-0.232 -0.162,1.54 1.121,6.172 2.809,6.829 0.908,0.354 6.023,-1.796 5.758,-2.506 2.01,5.369 19.271,3.732 22.051,0.441 7.802,2.42 0.396,-4.079 1.056,-5.774 1.441,0.35 4.041,-0.296 5.273,0.448 1.302,0.786 1.386,2.684 2.467,3.842 2.223,2.378 6.334,3.064 8.485,5.735 -1.337,1.96 -2.589,3.237 -0.883,5.549 1.606,-1.127 1.887,-3.858 3.602,-5.315 1.542,0.57 3.007,1.462 3.723,2.974 0.291,-0.044 0.935,-0.22 1.184,-0.224 2.335,4.311 6.691,4.413 9.684,7.849 2.018,2.317 2.078,2.629 1.3,5.526 -0.475,1.769 -3.454,3.875 -0.274,5.307 0.006,3.057 -4.014,4.625 -3.898,8.218 2.315,-0.11 4.577,0.05 5.99,2.041 -1.282,1.626 -3.274,3.261 -5.318,3.733 -0.178,1.016 -0.992,1.684 -1.393,2.566 -4.145,-1.316 -8.016,-1.746 -8.722,3.326 -2.342,-0.166 -2.673,2.027 -2.223,4 1.647,-0.021 2.539,1.029 2.476,2.514 3.241,0.406 4.346,1.246 7.281,-0.879 1.531,-1.109 3.577,-5.713 5.866,-2.877 2.35,-4.857 7.498,-0.258 10.026,1.506 0.781,0.545 0.776,1.682 1.82,2.051 1.097,0.389 2.371,-0.699 3.269,-0.4 2.331,0.773 2.837,1.387 2.927,4.42 1.312,0.311 3.085,0.666 4.399,0.576 1.08,-0.072 2.901,-1.182 3.81,-1.053 2.022,0.289 3.146,2.469 4.849,3.068 2.806,0.984 4.57,-0.693 6.801,-1.041 2.992,-0.465 5.985,0.238 9.039,0.115 -0.96,-7.902 -15.056,-6.168 -19.51,-12.158 2.544,-5.971 10.8,1.35 14.685,1.656 8.051,0.635 5.405,-6.652 1.16,-5.799 0.752,-0.15 1.171,-0.699 2.265,-0.623 -2.053,-1.178 -1.783,-2.992 -3.186,-4.541 -1.364,-1.507 -3.141,-1.307 -4.114,-3.436 -3.168,0.878 -1.254,-2.246 -3.125,-3.084 -1.578,-0.707 -3.593,1.335 -5.308,0.63 -2.457,-1.011 -3.605,-7.123 -6.749,-1.963 0.028,-2.694 -1.99,-2.796 -3.375,-4.575 4.046,0.039 -0.458,-6.823 6.137,-5.419 0.915,0.194 1.971,1.704 2.474,1.726 1.163,0.05 2.809,-1.377 4.008,-1.68 0.287,1.828 6.801,7.75 8.447,6.516 1.054,-0.826 1.562,-1.865 1.519,-3.143 -4.206,-2.662 -0.33,-3.452 0.402,-5.379 1.153,-3.035 0.047,-7.399 0.264,-10.621 -1.938,-1.78 -4.739,-2.685 -7.621,-3.087 -1.638,-0.229 -3.491,0.274 -5.019,0.034 -1.751,-0.276 -2.834,-1.62 -4.356,-1.938 -2.449,-0.512 -5.11,1.645 -7.267,1.192 -1.823,-0.383 -1.962,-2.253 -2.743,-2.537 -2.915,-1.056 -6.299,2.051 -8.766,-0.306 1.42,-0.481 3.013,-4.26 1.259,-5.047 2.334,1.047 4.485,-0.891 2.488,-2.985 -1.666,1.375 -3.708,1.19 -5.583,1.315 -2.371,-2.814 3.016,-3.481 2.621,-5.534 -0.244,-1.269 -3.398,-0.512 -4.63,-2.023 -0.42,3.22 -1.943,3.208 -4.599,3.569 -0.412,-2.13 2.64,-3.49 1.674,-5.436 -1.125,-2.262 -4.913,-1.283 -6.059,0.248 -0.479,-0.697 -1.229,-0.742 -1.584,-1.741 -1.438,1.027 -2.629,2.637 -4.376,2.834 -0.178,-2.423 3.056,-8.627 -2.339,-7.56 -0.037,0.469 0.331,0.552 0.323,0.941 0.191,-0.084 -0.973,0.548 -1.149,0.541 -0.191,1.146 -0.681,2.254 -0.961,3.426 -1.492,-0.766 -2.181,-3.306 -3.748,-3.678 -0.917,-0.218 -3.188,1.119 -3.801,1.302 1.944,-3.379 1.291,-4.736 -2.25,-6.294 -0.499,-0.219 -3.556,-1.036 -3.525,-1.014 -0.421,-0.297 -1.123,-0.683 -1.599,-0.98 -2.035,1.377 -3.191,-0.649 -4.965,1.28 z m -69.492,34.242 c 1.689,-3.703 -4.707,-6.009 -6.521,-8.249 -2.822,-3.485 -2.348,-5.379 -3.067,-9.517 -0.448,-2.581 -1.685,-4.78 -1.808,-7.458 -0.104,-2.266 0.414,-4.484 0.078,-6.752 -2.318,-2.394 -6.598,-9.409 -7.769,-1.904 -0.239,1.529 0.612,13.689 -2.673,12.615 -3.012,-0.984 0.945,-11.892 -1.569,-12.972 -1.438,-0.618 -5.15,2.121 -5.866,3.203 -0.84,-0.027 -1.688,-0.043 -2.527,0.006 -0.012,10e-4 -0.022,10e-4 -0.033,0.002 -0.151,-2.65 3.127,-7.681 -2.401,-6.906 -1.383,0.198 -3.409,3.475 -4.919,2.56 -1.525,-0.925 1.221,-2.248 1.737,-2.96 5.261,-7.259 -5.681,-2.266 -8.31,-1.935 -1.992,0.248 -3.44,-1.114 -4.189,1.985 -0.366,-0.005 -0.795,0.087 -1.162,0.087 -0.506,3.667 -5.619,3.916 -3.314,7.975 1.851,3.262 5.915,2.349 8.732,4.169 -3.133,0.446 -11.632,-0.877 -9.689,4.471 1.584,4.361 7.574,3.509 11.119,4.717 1.75,0.596 10.013,4.494 5.924,6.478 -3.063,1.486 -8.719,-4.386 -12.162,-4.55 -7.73,-0.37 -4.197,6.771 -2.609,11.154 4.016,-0.674 6.969,3.961 6.476,7.438 -0.259,0.713 -0.04,1.22 0.474,2 4.611,0.458 8.963,2.585 13.488,1.005 2.231,-0.779 3.9,-0.838 6.041,-1.281 2.011,-0.417 3.17,-2.982 5.046,-2.922 1.882,0.061 4.594,3.433 6.4,4.358 -0.001,-0.008 -0.058,0.562 -0.111,0.453 3.048,2.07 6.076,0.491 8.836,1.962 0.614,-1.607 0.628,-3.412 1.274,-4.926 -2.18,0.283 -3.587,-1.227 -2.92,-3.255 1.982,0.184 6.906,1.331 7.994,-1.051 z m -70.241,-38.506 c 0.363,1.816 -1.032,3.858 -0.453,5.641 1.629,5.02 5.683,-2.569 6.938,1.339 3.842,-0.684 4.451,-2.928 6.688,-5.608 1.718,-2.06 4.34,-3.618 6.854,-4.547 2.819,-1.042 6.879,-0.231 9.34,-1.947 2.369,-1.65 2.854,-6.216 1.337,-8.613 -1.647,-2.602 -5.795,-2.834 -8.293,-4.46 -0.374,0.013 -0.798,-0.068 -1.174,-0.074 -0.726,-0.011 -0.753,-3.863 -1.212,-4.311 -1.136,-1.107 -2.079,-0.131 -3.523,-0.414 -1.691,-0.331 -3.092,-2.017 -4.896,-1.418 -2.32,0.771 -1.439,3.83 -2.025,5.649 -1.214,3.761 -5.197,5.968 -7.811,8.696 -1.985,2.072 -5.022,2.968 -4.059,6.146 0.444,1.467 1.966,2.305 2.289,3.921 z m 82.692,42.593 c -0.95,-1.356 -2.697,-5.103 -4.312,-2.167 -1.193,0.903 -1.005,3.018 -0.939,4.445 -3.872,0.317 -4.059,3.709 -1.304,5.613 1.874,1.295 6.22,2.649 8.509,2.23 2.213,-0.404 3.417,-2.169 1.907,-4.192 0.629,-2.08 -2.724,-4.305 -3.861,-5.929 z m -43.301,8.981 c 1.249,0.813 3.119,-1.32 4.243,-1.617 1.237,-0.328 2.509,-0.172 3.771,0.019 0.541,-2.065 3.197,-1.29 3.937,-3.214 -0.878,-1.06 -2.21,-1.262 -3.395,-0.744 h 1.5 c -0.589,0.082 -15.091,2.281 -10.056,5.556 z m 39.178,-27.964 c 0.706,-0.642 0.732,-2.029 1.551,-2.767 0.764,-0.688 1.977,-0.604 2.765,-1.236 2.663,-2.138 2.29,-5.727 1.774,-8.801 -0.367,0.019 -0.806,-0.092 -1.174,-0.075 0.486,-2.51 -1.354,-3.219 -3.244,-4.006 0.044,-3.024 4.064,-4.342 2.669,-7.919 -1.915,-0.529 -2.712,1.126 -4.175,0.976 -1.58,-0.163 -1.891,-2.544 -3.123,-1.646 -1.752,-0.539 -3.904,1.139 -4.189,2.827 1.431,0.752 1.307,1.607 -0.223,2.059 0.568,-0.167 2.576,4.068 2.037,5.024 -1.688,2.99 -3.428,-0.361 -3.834,-2.232 -4.188,4.869 3.062,10.259 5.013,14.737 1.189,2.728 1.832,5.166 4.153,3.059 z m -16.767,-23.521 c -0.414,-1.997 -3.723,-3.618 -5.172,-1.628 -1.375,1.887 1.736,4.709 2.609,6.263 0.41,0.727 2.778,-3.595 2.563,-4.635 z m 36.191,9.709 c 2.025,-0.791 6.312,-10.445 4.165,-12.097 -2.339,-1.799 -5.857,1.9 -7.506,-1.889 -1.183,-2.709 -6.706,5.56 -6.969,6.775 -0.538,2.486 -0.261,6.413 0.051,8.893 3.017,0.412 1.48,5.25 3.693,6.818 2.896,-2.203 0.868,-4.429 1.808,-7.138 1.156,-3.336 2.318,-0.409 4.758,-1.362 z m 0.951,-87.372 c 1.415,0.996 4.776,-0.825 6.466,-1.62 -0.556,2.51 -2.413,6.485 1.329,6.841 1.845,0.175 5.066,-2.025 6.458,-3.065 1.155,-0.863 4.483,-5.122 5.026,-2.037 0.547,3.112 -4.982,3.394 -5.53,5.565 -0.444,1.762 3.013,5.101 3.229,7.607 -3.314,-0.855 -4.193,-4.246 -7.266,-5.012 -4.338,-1.083 -3.289,2.717 -1.428,4.992 0.896,1.095 2.082,1.474 2.811,2.797 0.842,1.526 0.35,2.909 1.807,4.058 0.93,0.734 3.623,0.076 3.676,1.848 0.053,1.778 -2.439,1.424 -3.443,1.552 -4.627,0.592 -6.467,2.222 -6.588,7.272 1.29,1.619 2.07,0.201 3.422,0.706 2.268,0.847 0.523,0.489 1.872,2.245 1.873,2.439 2.204,-0.387 3.938,0.376 2.848,1.253 0.387,3.106 -1.818,3.015 -1.806,-0.075 -2.252,-0.719 -3.664,-1.842 -0.043,-0.307 -0.025,-0.612 -0.081,-0.919 -3.194,-1.332 -3.442,1.417 -4.106,3.718 5.972,2.503 -4.807,5.723 -0.064,10.458 2.066,0.102 4.621,-0.162 6.178,-0.036 1.904,0.154 2.768,1.344 4.031,-1.452 2.622,1.107 5.172,-1.473 7.961,-1.688 0.048,1.212 0.09,2.376 0.595,3.362 1.715,-1.339 10.354,-8.584 4.693,-10.118 -0.568,1.117 -1.446,1.803 -2.712,1.681 0.094,-0.385 0.055,-0.778 0.182,-1.156 -2.248,-1.498 -5.984,0.277 -6.695,-3.506 2.643,-0.14 4.125,2.064 6.703,-0.043 2.721,-2.224 -0.039,-3.558 0.816,-6.464 1.654,-0.19 5.911,-2.337 1.993,-2.581 -0.31,-2.377 3.081,-0.802 2.419,-3.669 -0.68,-0.009 -1.387,-0.484 -2.174,-0.331 1.228,-1.807 1.955,-2.876 -0.533,-4.356 -0.861,0.004 -1.607,-0.281 -2.462,-0.644 -0.014,-0.736 -0.112,-0.422 -0.507,-0.769 0.076,-1.066 -0.76,-1.398 -2.006,-1.245 0.949,-1.309 2.678,-1.194 3.649,-2.231 0.534,-0.57 1.482,-3.491 1.619,-4.428 -0.034,0.234 3.941,-0.937 4.312,-1.295 1.503,-1.451 0.6,-4.363 -1.293,-5.063 0.917,-1.905 2.003,-2.771 2.458,-4.834 0.401,-1.818 0.613,-3.561 1.284,-5.567 0.006,-0.024 0.264,0.012 0.194,0.116 0.516,-0.777 0.562,-5.531 0.464,-6.608 -2.567,0.482 -2.643,4.922 -5.169,5.929 -0.111,-2.356 0.133,-4.545 -0.764,-6.674 0.799,0.083 1.393,-0.084 2.219,0.481 2.292,-2.686 4.485,-7.859 1.05,-10.834 -2.6,-2.25 -5.874,2.01 -8.028,0.383 -1.273,-0.961 0.584,-1.599 -1.494,-2.438 -1.168,-0.471 -2.266,0.046 -3.289,0.517 -1.144,0.526 -4.531,1.708 -5.301,2.322 -1.292,1.03 -0.761,1.346 -1.461,2.832 -0.617,1.308 -2.065,1.747 -3.364,1.182 -1.172,1.557 -1.501,2.626 -2.31,4.287 -1.228,2.521 -1.348,2.418 -4.294,1.25 -0.37,0.318 -0.997,1.236 -1.151,1.724 0.564,0.755 0.962,1.659 1.418,2.5 -0.258,0.3 -0.453,0.529 -0.775,0.776 -2.184,-1.199 -2.177,0.358 -3.662,1.194 -1.24,0.698 -2.782,0.904 -4.043,1.825 -0.123,0.286 -0.254,1.142 -0.262,1.413 3.552,0.003 1.394,4.244 3.465,5.701 z m -5.656,21.864 c -0.221,0.315 -1.113,0.298 -1.546,1.112 -0.276,0.521 0.194,3.54 0.386,4.224 0.904,-0.105 1.709,0.088 2.491,-0.372 1.015,1.312 0.743,3.418 2.427,4.065 1.541,0.592 3.66,-1.064 4.527,-2.108 2.021,-2.433 7.649,-7.958 6.988,-11.512 -0.319,-1.712 -2.924,-3.152 -4.161,-4.066 -1.286,-0.951 -3.029,-1.645 -4.146,-2.647 -2.028,-1.825 -4.537,-14.244 -8.808,-11.968 l 1.25,-0.25 c -1.316,1.372 -3.318,4.113 -3.272,6.088 0.066,2.847 2.592,4.216 0.711,7.375 -5.297,-0.803 -1.766,3.938 -1.395,6.994 2.891,0.829 8.013,-1.879 4.548,3.065 z m 16.811,46.786 c 1.647,0.399 4.251,-0.252 5.904,-0.531 2.634,-0.443 4.392,-2.877 6.688,-3.106 1.602,-0.16 2.191,1.689 4.196,0.674 2.277,-1.154 2.556,-4.428 1.577,-6.566 -0.524,-1.147 1.394,-2.419 -0.284,-4.214 -1.106,-1.182 -2.436,-1.131 -3.909,-1.289 -2.006,-0.215 -4.772,-0.069 -6.597,0.747 -0.839,0.375 -1.362,1.415 -2.229,1.704 -0.489,0.163 -1.768,0.023 -1.999,0.135 -2.099,1.015 -2.217,1.856 -4.683,1.967 -3.686,0.166 -2.211,-1.602 -4.345,-2.927 -1.81,-1.124 -4.103,1.364 -4.493,-1.662 -0.242,-1.886 2.35,-2.589 1.863,-4.188 0.061,0.197 -3.393,-2.247 -3.307,-2.225 -1.758,-0.456 -2.96,0.971 -4.787,0.996 0.172,-1.592 0.159,-2.069 -1.499,-2.324 l -0.75,-0.25 c -2.628,-2.428 -5.819,-2.873 -5.462,1.457 1.777,1.204 3.785,3.671 5.897,4.242 1.591,0.429 2.403,-1.004 3.701,0.639 3.052,3.867 0.171,14.388 5.562,16.403 2.967,1.11 3.266,-1.057 5.363,-2.289 1.471,0.724 1.832,2.181 3.593,2.607 z M 204.373,90.638 c 1.124,-0.844 0.417,-2.005 1.146,-2.822 0.654,-0.733 1.687,10e-4 2.32,-0.75 0.692,-0.819 1.076,-5.076 3.059,-4.352 2.043,0.747 -1.756,4.419 1.396,4.626 1.238,0.081 3.287,-3.128 3.696,-4.163 0.727,-1.842 1.434,-4.151 2.026,-6.069 -0.975,-0.353 -1.737,0.222 -2.617,0.008 -0.229,-0.056 -1.935,-0.587 -2.081,-0.593 -1.741,-0.068 -3.348,0.585 -5.194,1.841 l 0.75,-0.25 c -1.183,1.328 -2.662,2.796 -4.271,3.598 -1.765,0.88 -4.857,0.465 -6.24,1.863 -3.44,3.475 4.847,4.006 6.01,7.063 z m 6.214,2.431 c 0.268,0.395 0.652,0.613 1.153,0.655 -0.113,0.052 -1.367,1.23 -1.831,1.382 0.225,0.329 0.339,0.856 0.529,1.142 -1.912,0.82 -3.852,0.165 -3.266,2.689 0.257,1.106 1.986,2.177 2.877,2.751 1.75,1.128 1.938,0.905 3.52,0.75 0.881,-0.086 2.27,-2.782 2.348,0.381 1.379,0.739 7.599,-0.645 6.33,2.439 -0.652,1.587 -7.12,2.023 -8.58,1.897 -0.315,0.668 -0.307,1.242 -0.007,1.92 3.472,1.957 5.554,0.95 8.866,-0.53 2.805,-1.254 4.021,-0.771 6.996,-0.395 2.658,0.337 5.186,0.295 7.22,-1.628 1.45,-1.37 3.864,-5.435 2.552,-7.42 -1.232,-1.863 -4.954,-1.257 -6.707,-2.955 -0.229,-0.101 -0.443,0.014 -0.677,-0.073 -0.215,-1.364 0.765,-5.763 -0.181,-6.641 -3.984,-3.702 -2.854,11.56 -2.846,11.55 -1.418,1.105 -4.234,-1.199 -4.961,-2.264 -1.399,-2.048 -0.496,-6.718 -4.314,-6.145 2.221,-6.124 -7.351,-3.172 -9.021,0.495 z m 19.292,-11.431 c 1.573,-1.316 4.517,-9.219 -0.256,-7.024 v -0.25 c -2.373,1.247 -4.395,1.124 -4.685,4.116 -0.488,5.01 2.576,1.685 4.941,3.158 z m 4.309,-12.277 c -1.028,-2.226 -6.255,0.151 -7.492,1.126 1.005,3.488 8.869,1.859 7.492,-1.126 z m 72.722,53.42 c 0.409,0.956 1.349,2.122 2.149,3.633 2.191,4.137 1.73,2.006 4.798,0.204 1.644,-0.965 2.498,-0.248 4.248,-0.498 4.249,-0.605 2.461,-3.68 -0.24,-5.715 -2.183,-1.64 -6.412,-1.246 -8.789,-0.452 -2.368,0.79 -2.671,1.649 -2.166,2.828 z M 251.489,77.955 c 2.117,1.972 2.385,5.368 2.934,1.417 0.361,-2.603 0.396,-6.942 -0.735,-9.387 -1.177,-2.545 -3.973,-4.545 -6.814,-4.371 l -1.25,-0.5 c 0.212,0.094 0.329,-0.262 -0.196,-0.219 -1.365,2.348 -2.459,6.754 -0.832,9.236 1.522,2.325 4.826,1.9 6.893,3.824 z m 8.09,-0.517 c 0.367,1.947 -1.425,2.704 0.564,4.791 1.057,-0.406 1.693,-1.382 2.292,-2.328 0.978,0.539 1.438,0.274 2.394,-0.081 0.036,-2.554 -2.623,-10.766 -6.456,-7.957 l 0.134,0.066 c -1.736,2.054 0.735,3.718 1.072,5.509 z m 8.62,8.695 c 2.909,-1.976 -0.876,-4.139 -3.091,-3.672 -1.652,-0.166 -3.584,0.365 -3.232,2.115 1.547,0.026 2.445,0.512 3.389,0.794 0.916,0.274 1.666,1.625 2.934,0.763 z m 7.674,-2.269 v 0.75 c -1.359,-0.444 -2.388,0.548 -2.618,1.721 1.148,0.576 2.432,0.872 3.711,0.853 0.445,-1.292 -0.069,-2.582 -1.093,-3.324 z m -21.872,11.525 c -0.883,-0.185 -1.656,-1.547 -2.628,-1.525 v 0.5 c -1.5,2.34 1.444,4.058 0.956,6.457 -2.238,0.23 -2.588,-3.393 -3.894,-4.668 -0.002,1.45 0.036,3.047 -0.523,4.41 -0.446,1.088 -2.501,2.464 -2.554,3.559 -0.18,3.748 5.383,-1.784 6.492,0.178 0.948,1.678 -4.828,8.147 1.947,7.428 3.74,-0.397 3.727,-5.214 4.254,-8.067 0.344,-1.862 1.111,-5.407 0.082,-7.139 -0.788,-1.328 -1.076,-1.044 -2.23,-1.476 -0.324,-0.123 -1.351,0.458 -1.902,0.343 z m 11.043,18.127 c 3.386,0.084 4.604,-4.923 2.201,-6.963 -4.017,-3.411 -8.308,6.811 -2.201,6.963 z m 66.884,57.802 c -0.478,1.668 0.372,6.068 0.482,8.008 2.401,1.863 6.995,-0.156 7.534,-2.797 0.5,-2.453 -0.685,-2.021 -1.137,-3.846 -0.365,-1.47 0.482,-4.436 -2.185,-3.82 h 0.5 c -2.195,0.114 -4.538,0.166 -5.194,2.455 z m -3.023,45.299 c -1.088,-1.516 -4.087,-0.791 -5.538,-0.359 -0.44,-0.102 -0.397,-0.123 -0.957,-0.168 -0.146,-3.695 -2.224,-3.562 -4.1,-6.189 -1.665,-0.178 -2.516,-2.271 -3.98,-3.236 -1.512,-0.996 -3.846,-1.426 -5.462,-2.193 -1.725,6.383 -3.931,-2.805 -5.716,-2.701 -1.573,0.092 -2.599,5.449 -0.983,6.051 0.318,0.119 0.591,0.221 0.91,0.338 -0.021,3.023 0.785,6.258 -0.107,9.246 -0.782,2.619 -3.031,4.537 -3.818,7.166 2.006,0.297 4.63,-1.631 6.187,-1.334 3.15,0.605 -0.02,4.582 3.284,5.902 2.282,-1.23 4.23,-5.656 5.447,-7.924 2.844,-5.301 2.418,-2.828 6.911,-0.973 1.521,0.627 4.153,1.133 5.821,1.348 1.035,-1.417 3.495,-3.03 2.101,-4.974 z m -12.5,13.543 c -1.126,2.092 0.142,6.664 3.258,5.926 1.603,-0.379 4.18,-5.299 4.59,-6.85 0.559,-2.109 -0.06,-3.793 -2.38,-1.623 l 0.25,0.25 c -2.183,0.262 -4.556,0.139 -5.718,2.297 z m 18.991,0.098 c -3.7,0.377 -0.31,6.936 0.914,8.369 2.78,-1.025 2.411,-8.709 -0.914,-8.369 z m 6.255,-12.518 c -0.182,-0.166 -0.442,-0.281 -0.778,-0.377 v 0.064 c -0.653,-0.127 -1.351,0.027 -1.982,0.42 0.537,3.451 4.554,2.773 3.04,0.451 -0.024,-0.166 -0.079,-0.307 -0.165,-0.424 l 0.357,0.238 c -0.147,-0.151 -0.308,-0.268 -0.472,-0.372 z"
   id="path3071" />

		</g>
    <path
       style="fill:#ffffff;fill-opacity:1;stroke:none"
       d="M 0,485 30,485 15,500 0,485"
       id="path4088"
       inkscape:connector-curvature="0"
       transform="translate(0,552.36218)" />
    <path
       style="color:#000000;fill:#ea5245;fill-opacity:1;fill-rule:nonzero;stroke:none;stroke-width:1;marker:none;visibility:visible;display:inline;overflow:visible;enable-background:accumulate"
       d="M 492.5 485 C 488.35786 485 485 488.35786 485 492.5 C 485 496.64214 488.35786 500 492.5 500 C 496.64214 500 500 496.64214 500 492.5 C 500 488.35786 496.64214 485 492.5 485 z M 492.5 490 C 493.88071 490 495 491.11929 495 492.5 C 495 493.88071 493.88071 495 492.5 495 C 491.11929 495 490 493.88071 490 492.5 C 490 491.11929 491.11929 490 492.5 490 z "
       transform="translate(0,552.36218)"
       id="path4144" />
    <path
       style="color:#000000;fill:#ea5245;fill-opacity:1;fill-rule:nonzero;stroke:none;stroke-width:1;marker:none;visibility:visible;display:inline;overflow:visible;enable-background:accumulate;opacity:0.25"
       d="M 492.5 465 C 488.35786 465 485 468.35786 485 472.5 C 485 476.64214 488.35786 480 492.5 480 C 496.64214 480 500 476.64214 500 472.5 C 500 468.35786 496.64214 465 492.5 465 z M 492.5 470 C 493.88071 470 495 471.11929 495 472.5 C 495 473.88071 493.88071 475 492.5 475 C 491.11929 475 490 473.88071 490 472.5 C 490 471.11929 491.11929 470 492.5 470 z "
       transform="translate(0,552.36218)"
       id="path4146" />
  </g>
</svg>
